<svg width="56" height="56" viewBox="0 0 56 56" fill="none" xmlns="http://www.w3.org/2000/svg">
<g clip-path="url(#clip0_24_2049)">
<path d="M54.25 14.5C54.25 14.9142 54.5858 15.25 55 15.25C55.4142 15.25 55.75 14.9142 55.75 14.5H54.25ZM55.75 25.3C55.75 24.8858 55.4142 24.55 55 24.55C54.5858 24.55 54.25 24.8858 54.25 25.3H55.75ZM1.74999 46.9C1.74999 46.4858 1.4142 46.15 0.999989 46.15C0.585775 46.15 0.249989 46.4858 0.249989 46.9H1.74999ZM0.249989 36.1C0.249989 36.5142 0.585775 36.85 0.999989 36.85C1.4142 36.85 1.74999 36.5142 1.74999 36.1H0.249989ZM13.7351 1.75001H42.2649V0.25001H13.7351V1.75001ZM11.6018 53.2322L10.1525 52.0386L9.19891 53.1965L10.6482 54.3901L11.6018 53.2322ZM45.8475 52.0386L44.3982 53.2322L45.3518 54.3901L46.8011 53.1965L45.8475 52.0386ZM50.6525 52.0386C49.2773 50.9061 47.2227 50.9061 45.8475 52.0386L46.8011 53.1965C47.6224 52.5201 48.8776 52.5201 49.6989 53.1965L50.6525 52.0386ZM38.6018 53.2322C36.4001 51.4189 33.0999 51.4189 30.8982 53.2322L31.8518 54.3901C33.4996 53.033 36.0004 53.033 37.6482 54.3901L38.6018 53.2322ZM25.1018 53.2322C22.9001 51.4189 19.5999 51.4189 17.3982 53.2322L18.3518 54.3901C19.9996 53.033 22.5004 53.033 24.1482 54.3901L25.1018 53.2322ZM10.1525 52.0386C8.77732 50.9061 6.72266 50.9061 5.34749 52.0386L6.30107 53.1965C7.12236 52.5201 8.37762 52.5201 9.19891 53.1965L10.1525 52.0386ZM10.6482 54.3901C12.8499 56.2033 16.1501 56.2033 18.3518 54.3901L17.3982 53.2322C15.7504 54.5893 13.2496 54.5893 11.6018 53.2322L10.6482 54.3901ZM37.6482 54.3901C39.8499 56.2033 43.1501 56.2033 45.3518 54.3901L44.3982 53.2322C42.7504 54.5893 40.2496 54.5893 38.6018 53.2322L37.6482 54.3901ZM24.1482 54.3901C26.3499 56.2033 29.6501 56.2033 31.8518 54.3901L30.8982 53.2322C29.2504 54.5893 26.7496 54.5893 25.1018 53.2322L24.1482 54.3901ZM0.249989 50.6103C0.249989 52.1242 1.22268 53.2532 2.42304 53.7527C3.6215 54.2513 5.12793 54.1626 6.30107 53.1965L5.34749 52.0386C4.65133 52.6119 3.74562 52.6783 2.99925 52.3677C2.2548 52.058 1.74999 51.4137 1.74999 50.6103H0.249989ZM54.25 50.6103C54.25 51.4137 53.7452 52.058 53.0007 52.3677C52.2544 52.6783 51.3487 52.6119 50.6525 52.0386L49.6989 53.1965C50.8721 54.1626 52.3785 54.2513 53.5769 53.7527C54.7773 53.2532 55.75 52.1242 55.75 50.6103H54.25ZM42.2649 1.75001C45.7983 1.75001 47.3929 1.75868 48.6577 2.15477L49.106 0.723323C47.5669 0.241341 45.6848 0.25001 42.2649 0.25001V1.75001ZM55.75 12.7992C55.75 9.6428 55.7614 7.86621 55.2307 6.41152L53.8216 6.92559C54.2386 8.06876 54.25 9.5133 54.25 12.7992H55.75ZM48.6577 2.15477C51.1096 2.9226 53.0086 4.69725 53.8216 6.92559L55.2307 6.41152C54.2465 3.71359 51.9711 1.62058 49.106 0.723323L48.6577 2.15477ZM13.7351 0.25001C10.3152 0.25001 8.43311 0.241341 6.89402 0.723323L7.34229 2.15477C8.60712 1.75868 10.2017 1.75001 13.7351 1.75001V0.25001ZM1.74999 12.7992C1.74999 9.5133 1.76139 8.06876 2.17843 6.92559L0.769272 6.41152C0.238585 7.86621 0.249989 9.6428 0.249989 12.7992H1.74999ZM6.89402 0.723323C4.02887 1.62058 1.7535 3.71359 0.769272 6.41152L2.17843 6.92559C2.99135 4.69725 4.89043 2.9226 7.34229 2.15477L6.89402 0.723323ZM54.25 12.7992V14.5H55.75V12.7992H54.25ZM54.25 25.3V50.6103H55.75V25.3H54.25ZM1.74999 50.6103V46.9H0.249989V50.6103H1.74999ZM1.74999 36.1V12.7992H0.249989V36.1H1.74999Z" fill="#22A1D9"/>
<path d="M21.0604 25.7002C20.7846 25.3913 20.3104 25.3644 20.0015 25.6403C19.6925 25.9162 19.6657 26.3903 19.9415 26.6993L21.0604 25.7002ZM24.7867 30.9998L24.2272 31.4993C24.3695 31.6586 24.573 31.7498 24.7867 31.7498C25.0003 31.7498 25.2038 31.6586 25.3461 31.4993L24.7867 30.9998ZM36.0604 19.4993C36.3363 19.1903 36.3095 18.7162 36.0005 18.4403C35.6915 18.1644 35.2174 18.1913 34.9415 18.5002L36.0604 19.4993ZM19.9415 26.6993L24.2272 31.4993L25.3461 30.5002L21.0604 25.7002L19.9415 26.6993ZM25.3461 31.4993L36.0604 19.4993L34.9415 18.5002L24.2272 30.5002L25.3461 31.4993Z" fill="#22A1D9"/>
<path d="M14.5 41.5H19M41.5 41.5H28" stroke="#22A1D9" stroke-width="1.5" stroke-linecap="round"/>
</g>
<defs>
<clipPath id="clip0_24_2049">
<rect width="56" height="56" fill="white"/>
</clipPath>
</defs>
</svg>
