<svg width="267" height="93" viewBox="0 0 267 93" fill="none" xmlns="http://www.w3.org/2000/svg">
<path d="M265 83.6776C265 84.9027 264.804 86.1157 264.423 87.2474C264.043 88.3791 263.485 89.4072 262.781 90.273C262.078 91.1388 261.243 91.8252 260.324 92.2932C259.405 92.7611 258.421 93.0013 257.427 93H9.58331C7.57453 93.0026 5.64716 92.0219 4.22507 90.2737C2.80298 88.5255 2.00262 86.1529 2 83.6776V9.33456C2.00262 6.85819 2.80266 4.4843 4.22447 2.73415C5.64627 0.983999 7.57362 0.000642791 9.58331 0H257.425C258.419 -4.16923e-08 259.404 0.241463 260.323 0.710599C261.242 1.17973 262.077 1.86735 262.781 2.73418C263.484 3.601 264.042 4.63006 264.422 5.76257C264.803 6.89507 264.998 8.10885 264.998 9.33456L265 83.6776Z" fill="#22A1D9"/>
<path d="M257.644 93H9.35804C6.87903 92.9994 4.50148 91.843 2.74707 89.7847C0.992669 87.7263 0.00471687 84.9341 0 82.0207L0 10.991C0.00366733 8.0761 0.990968 5.28195 2.74532 3.22148C4.49967 1.161 6.8778 0.00246026 9.35804 0L257.642 0C260.122 0.00368788 262.499 1.16262 264.254 3.22283C266.008 5.28304 266.995 8.07648 267 10.991V82.0207C267.004 88.0766 262.799 93 257.644 93Z" fill="white"/>
<path d="M265.229 77.7705C265.229 78.7661 265.033 79.7521 264.651 80.6718C264.27 81.5916 263.711 82.4272 263.006 83.1309C262.302 83.8346 261.465 84.3925 260.545 84.7728C259.624 85.1532 258.638 85.3484 257.642 85.3473H9.35797C7.34561 85.3494 5.41482 84.5524 3.9902 83.1315C2.56558 81.7106 1.76379 79.7823 1.76117 77.7705V17.3474C1.76379 15.3347 2.56526 13.4053 3.98959 11.9829C5.41393 10.5604 7.3447 9.7612 9.35797 9.76068H257.64C258.637 9.76068 259.623 9.95693 260.544 10.3382C261.465 10.7195 262.301 11.2784 263.006 11.9829C263.71 12.6874 264.269 13.5238 264.65 14.4443C265.031 15.3647 265.227 16.3512 265.227 17.3474L265.229 77.7705Z" fill="white"/>
<path d="M59.6187 47.1385C59.5613 40.7625 64.8409 37.6605 65.0823 37.5161C62.0923 33.1579 57.4578 32.5625 55.8292 32.515C51.9368 32.1055 48.1612 34.8434 46.1784 34.8434C44.156 34.8434 41.1026 32.5545 37.8118 32.6218C33.5771 32.6871 29.6154 35.1382 27.4427 38.9444C22.9586 46.7053 26.3028 58.1101 30.5989 64.3833C32.748 67.4576 35.2591 70.886 38.546 70.7653C41.7616 70.6347 42.9628 68.7178 46.8433 68.7178C50.6882 68.7178 51.8161 70.7653 55.1683 70.6881C58.6194 70.6347 60.7922 67.602 62.866 64.502C65.3495 60.9826 66.3468 57.5127 66.3864 57.3347C66.3072 57.307 59.686 54.7787 59.6187 47.1385ZM53.2864 28.3883C55.0159 26.226 56.1993 23.2843 55.8708 20.299C53.3675 20.4098 50.237 22.03 48.4343 24.1448C46.8393 26.0084 45.4146 29.0629 45.7826 31.9353C48.5946 32.145 51.4817 30.5169 53.2864 28.3883Z" fill="#22A1D9"/>
<path d="M257.642 7.99994H124.654L176.743 87.1099H257.642C260.122 87.1078 262.499 86.1229 264.253 84.371C266.008 82.6191 266.995 80.2433 267 77.7645V17.3494C266.996 14.87 266.008 12.4935 264.254 10.7408C262.5 8.98823 260.122 8.00255 257.642 7.99994Z" fill="url(#paint0_linear_24_1968)"/>
<path d="M106.195 70.3242H101.701L99.2392 62.591H90.6827L88.3378 70.3242H83.9625L92.4419 43.997H97.6779L106.195 70.3242ZM98.4972 59.3466L96.271 52.472C96.0355 51.7697 95.5922 50.1159 94.9432 47.5125H94.864C94.6028 48.6322 94.1853 50.286 93.6134 52.472L91.4248 59.3466H98.4972ZM127.958 60.5989C127.958 63.8274 127.082 66.3794 125.326 68.2529C123.755 69.9206 121.802 70.7535 119.473 70.7535C116.958 70.7535 115.149 69.8573 114.051 68.061V78.0217H109.832V57.58C109.832 55.5522 109.779 53.4731 109.676 51.3405H113.386L113.621 54.3494H113.701C115.108 52.0823 117.243 50.9487 120.108 50.9487C122.348 50.9487 124.218 51.833 125.714 53.6036C127.208 55.3781 127.958 57.7086 127.958 60.5989ZM123.66 60.7532C123.66 58.9054 123.245 57.3822 122.41 56.1813C121.497 54.933 120.272 54.3079 118.737 54.3079C117.696 54.3079 116.75 54.6561 115.905 55.3425C115.058 56.0349 114.504 56.939 114.245 58.0587C114.129 58.4775 114.063 58.9085 114.049 59.3426V62.5099C114.049 63.8888 114.472 65.054 115.319 66.0075C116.166 66.9571 117.267 67.4339 118.62 67.4339C120.209 67.4339 121.446 66.8186 122.33 65.598C123.217 64.3735 123.66 62.7592 123.66 60.7532ZM149.799 60.5989C149.799 63.8274 148.922 66.3794 147.167 68.2529C145.594 69.9206 143.643 70.7535 141.312 70.7535C138.796 70.7535 136.988 69.8573 135.889 68.061V78.0217H131.671V57.58C131.671 55.5522 131.617 53.4731 131.514 51.3405H135.225L135.46 54.3494H135.539C136.944 52.0823 139.079 50.9487 141.947 50.9487C144.185 50.9487 146.055 51.833 147.555 53.6036C149.047 55.3781 149.799 57.7086 149.799 60.5989ZM145.499 60.7532C145.499 58.9054 145.081 57.3822 144.246 56.1813C143.334 54.933 142.113 54.3079 140.577 54.3079C139.536 54.3079 138.591 54.6561 137.742 55.3425C136.895 56.0349 136.343 56.939 136.083 58.0587C135.955 58.581 135.886 59.0063 135.886 59.3426V62.5099C135.886 63.8888 136.311 65.054 137.154 66.0075C138.001 66.9551 139.101 67.4339 140.459 67.4339C142.05 67.4339 143.286 66.8186 144.169 65.598C145.056 64.3735 145.499 62.7592 145.499 60.7532ZM174.218 62.9392C174.218 65.1806 173.434 67.0026 171.877 68.4092C170.163 69.9443 167.771 70.7139 164.703 70.7139C161.87 70.7139 159.598 70.1679 157.884 69.0739L158.86 65.5584C160.71 66.6544 162.742 67.2004 164.955 67.2004C166.546 67.2004 167.783 66.8404 168.665 66.1262C169.55 65.4101 169.997 64.4526 169.997 63.2577C169.997 62.1874 169.627 61.2913 168.901 60.5613C168.17 59.8333 166.963 59.1547 165.267 58.5315C160.657 56.8124 158.349 54.298 158.349 50.9903C158.349 48.83 159.165 47.0614 160.791 45.6786C162.418 44.2977 164.575 43.6073 167.258 43.6073C169.655 43.6073 171.651 44.0247 173.236 44.8576L172.178 48.2959C170.686 47.4887 169.002 47.0851 167.118 47.0851C165.63 47.0851 164.462 47.4511 163.627 48.1791C162.924 48.83 162.568 49.6233 162.568 50.565C162.568 51.6036 162.974 52.4661 163.781 53.1427C164.482 53.7658 165.76 54.4444 167.608 55.1724C169.876 56.0864 171.542 57.1507 172.609 58.3733C173.683 59.5959 174.218 61.1211 174.218 62.9392ZM188.202 54.5057H183.552V63.7226C183.552 66.0669 184.371 67.236 186.014 67.236C186.768 67.236 187.393 67.1727 187.888 67.0402L188.004 70.243C187.173 70.5536 186.079 70.7099 184.723 70.7099C183.057 70.7099 181.755 70.2015 180.815 69.1847C179.879 68.1678 179.408 66.4645 179.408 64.0668V54.4978H176.638V51.3325H179.408V47.8567L183.552 46.6064V51.3325H188.202V54.5057ZM209.142 60.676C209.142 63.594 208.307 65.9897 206.641 67.8632C204.898 69.792 202.579 70.7535 199.688 70.7535C196.897 70.7535 194.679 69.8296 193.025 67.9838C191.37 66.1341 190.543 63.8037 190.543 60.9925C190.543 58.0508 191.398 55.6413 193.102 53.7678C194.81 51.8924 197.109 50.9547 200 50.9547C202.786 50.9547 205.024 51.8805 206.718 53.7283C208.337 55.5206 209.142 57.8352 209.142 60.676ZM204.769 60.773C204.769 59.034 204.393 57.5424 203.639 56.2941C202.755 54.7866 201.488 54.0329 199.848 54.0329C198.158 54.0329 196.862 54.7866 195.979 56.2941C195.223 57.5424 194.847 59.0598 194.847 60.8521C194.847 62.593 195.223 64.0886 195.979 65.3329C196.891 66.8404 198.164 67.5941 199.812 67.5941C201.425 67.5941 202.689 66.8246 203.604 65.2953C204.379 64.0174 204.769 62.5158 204.769 60.773ZM222.862 55.0498C222.423 54.9706 221.978 54.9315 221.532 54.933C220.048 54.933 218.9 55.4909 218.093 56.6146C217.392 57.6037 217.04 58.854 217.04 60.3634V70.3242H212.821V57.3189C212.825 55.326 212.784 53.3334 212.698 51.3424H216.373L216.528 54.9746H216.644C217.092 53.7263 217.792 52.7193 218.754 51.9656C219.634 51.307 220.704 50.9503 221.803 50.9487C222.193 50.9487 222.545 50.9764 222.858 51.0259L222.862 55.0498ZM241.73 59.9342C241.741 60.5753 241.689 61.216 241.576 61.8472H228.919C228.967 63.7226 229.58 65.1588 230.755 66.148C231.822 67.0303 233.201 67.4734 234.895 67.4734C236.769 67.4734 238.479 67.1767 240.016 66.5773L240.677 69.5032C238.881 70.2866 236.759 70.6763 234.311 70.6763C231.367 70.6763 229.056 69.8098 227.374 68.0808C225.696 66.3498 224.855 64.0233 224.855 61.1093C224.855 58.2487 225.636 55.8648 227.201 53.9637C228.84 51.9339 231.054 50.9191 233.84 50.9191C236.577 50.9191 238.649 51.9339 240.056 53.9637C241.17 55.572 241.73 57.5661 241.73 59.9342ZM237.707 58.8402C237.737 57.5879 237.46 56.5097 236.888 55.5977C236.158 54.4226 235.034 53.8371 233.528 53.8371C232.149 53.8371 231.025 54.4088 230.17 55.5562C229.467 56.4682 229.05 57.5642 228.921 58.8362L237.707 58.8402Z" fill="#4E535A"/>
<path d="M89.4657 34.6891C88.2923 34.6891 87.2771 34.6318 86.4322 34.5348V21.8065C87.6139 21.624 88.8082 21.534 90.004 21.5375C94.8423 21.5375 97.0704 23.9173 97.0704 27.7968C97.0704 32.2717 94.4386 34.6891 89.4657 34.6891ZM90.1742 23.1695C89.5211 23.1695 88.9651 23.2091 88.504 23.3041V32.9799C88.7533 33.0195 89.2322 33.0373 89.905 33.0373C93.0751 33.0373 94.8799 31.2331 94.8799 27.8541C94.8799 24.8412 93.2473 23.1695 90.1742 23.1695ZM104.014 34.7861C101.287 34.7861 99.5203 32.7504 99.5203 29.9867C99.5203 27.1063 101.325 25.0529 104.169 25.0529C106.856 25.0529 108.663 26.9916 108.663 29.8344C108.663 32.7504 106.8 34.7861 104.014 34.7861ZM104.093 26.5683C102.595 26.5683 101.636 27.9689 101.636 29.9274C101.636 31.8483 102.615 33.249 104.074 33.249C105.532 33.249 106.512 31.7514 106.512 29.8878C106.512 27.9887 105.552 26.5683 104.093 26.5683ZM124.212 25.2448L121.294 34.5744H119.392L118.183 30.5229C117.882 29.5318 117.632 28.5262 117.433 27.5099H117.393C117.241 28.5268 116.952 29.5456 116.645 30.5229L115.359 34.5744H113.437L110.691 25.2448H112.822L113.879 29.6801C114.128 30.7365 114.338 31.7336 114.512 32.6752H114.552C114.704 31.8899 114.953 30.9086 115.319 29.6999L116.645 25.2468H118.335L119.604 29.6049C119.91 30.6613 120.16 31.698 120.354 32.6772H120.409C120.544 31.7178 120.755 30.6989 121.042 29.6049L122.176 25.2468L124.212 25.2448ZM134.957 34.5744H132.884V29.2172C132.884 27.5673 132.25 26.7404 131.002 26.7404C129.773 26.7404 128.928 27.7968 128.928 29.0253V34.5744H126.854V27.9115C126.854 27.0866 126.834 26.2023 126.777 25.2428H128.601L128.698 26.683H128.756C129.314 25.6859 130.446 25.0529 131.714 25.0529C133.673 25.0529 134.959 26.5504 134.959 28.9877L134.957 34.5744ZM140.676 34.5744H138.601V20.9637H140.676V34.5744ZM148.238 34.7861C145.513 34.7861 143.744 32.7504 143.744 29.9867C143.744 27.1063 145.548 25.0529 148.39 25.0529C151.079 25.0529 152.884 26.9916 152.884 29.8344C152.886 32.7504 151.022 34.7861 148.238 34.7861ZM148.315 26.5683C146.817 26.5683 145.857 27.9689 145.857 29.9274C145.857 31.8483 146.838 33.249 148.293 33.249C149.753 33.249 150.731 31.7514 150.731 29.8878C150.733 27.9887 149.775 26.5683 148.315 26.5683ZM161.06 34.5744L160.91 33.5002H160.855C160.221 34.3647 159.297 34.7861 158.126 34.7861C156.454 34.7861 155.266 33.6149 155.266 32.0402C155.266 29.7375 157.263 28.5465 160.72 28.5465V28.3744C160.72 27.1459 160.069 26.5307 158.783 26.5307C157.863 26.5307 157.055 26.7621 156.345 27.2231L155.923 25.86C156.786 25.3219 157.863 25.0529 159.127 25.0529C161.565 25.0529 162.796 26.3388 162.796 28.9125V32.3488C162.796 33.2905 162.837 34.0205 162.93 34.5764L161.06 34.5744ZM160.775 29.9274C158.472 29.9274 157.316 30.4853 157.316 31.8088C157.316 32.788 157.912 33.2668 158.739 33.2668C159.794 33.2668 160.775 32.4616 160.775 31.3676V29.9274ZM172.866 34.5744L172.769 33.0768H172.712C172.116 34.2084 171.115 34.7861 169.716 34.7861C167.466 34.7861 165.8 32.8078 165.8 30.0243C165.8 27.1063 167.527 25.0509 169.886 25.0509C171.135 25.0509 172.019 25.4723 172.518 26.319H172.56V20.9637H174.635V32.06C174.635 32.9621 174.657 33.8068 174.713 34.5744H172.866ZM172.56 29.0846C172.56 27.779 171.695 26.6652 170.375 26.6652C168.837 26.6652 167.897 28.0282 167.897 29.9472C167.897 31.8285 168.873 33.1164 170.333 33.1164C171.637 33.1164 172.56 31.9828 172.56 30.6396V29.0846ZM187.797 34.7861C185.072 34.7861 183.305 32.7504 183.305 29.9867C183.305 27.1063 185.109 25.0529 187.951 25.0529C190.64 25.0529 192.445 26.9916 192.445 29.8344C192.447 32.7504 190.585 34.7861 187.797 34.7861ZM187.874 26.5683C186.378 26.5683 185.418 27.9689 185.418 29.9274C185.418 31.8483 186.398 33.249 187.854 33.249C189.314 33.249 190.292 31.7514 190.292 29.8878C190.296 27.9887 189.336 26.5683 187.874 26.5683ZM203.598 34.5744H201.522V29.2172C201.522 27.5673 200.889 26.7404 199.64 26.7404C198.411 26.7404 197.568 27.7968 197.568 29.0253V34.5744H195.492V27.9115C195.492 27.0866 195.473 26.2023 195.415 25.2428H197.24L197.337 26.683H197.394C197.95 25.6859 199.084 25.0509 200.35 25.0509C202.31 25.0509 203.598 26.5485 203.598 28.9857V34.5744ZM217.551 26.7997H215.269V31.33C215.269 32.4834 215.669 33.059 216.476 33.059C216.842 33.059 217.149 33.0195 217.396 32.9621L217.454 34.5368C217.052 34.6911 216.514 34.7683 215.845 34.7683C214.21 34.7683 213.233 33.8662 213.233 31.5041V26.7997H211.871V25.2448H213.233V23.5355L215.269 22.9203V25.2428H217.551V26.7997ZM228.529 34.5744H226.457V29.2568C226.457 27.5871 225.826 26.7423 224.576 26.7423C223.501 26.7423 222.5 27.4723 222.5 28.9501V34.5744H220.428V20.9637H222.5V26.5683H222.541C223.194 25.5514 224.14 25.0509 225.347 25.0509C227.322 25.0509 228.529 26.5861 228.529 29.0253V34.5744ZM239.777 30.4081H233.554C233.593 32.1747 234.763 33.1718 236.494 33.1718C237.414 33.1718 238.261 33.0175 239.009 32.7306L239.332 34.1708C238.449 34.5546 237.41 34.7465 236.201 34.7465C233.282 34.7465 231.555 32.9028 231.555 30.0441C231.555 27.1835 233.324 25.0331 235.968 25.0331C238.352 25.0331 239.848 26.7997 239.848 29.4684C239.862 29.7834 239.838 30.0988 239.777 30.4081ZM237.875 28.9303C237.875 27.4901 237.149 26.4733 235.823 26.4733C234.632 26.4733 233.69 27.5099 233.556 28.9303H237.875Z" fill="#4E535A"/>
<defs>
<linearGradient id="paint0_linear_24_1968" x1="195.825" y1="87.32" x2="195.825" y2="-197.989" gradientUnits="userSpaceOnUse">
<stop offset="0.783" stop-color="white"/>
</linearGradient>
</defs>
</svg>
