<svg width="28" height="16" viewBox="0 0 28 16" fill="none" xmlns="http://www.w3.org/2000/svg">
<path d="M1 6.67682C0.447715 6.67682 0 7.12453 0 7.67682C0 8.2291 0.447715 8.67682 1 8.67682V6.67682ZM27.7071 8.38393C28.0976 7.9934 28.0976 7.36024 27.7071 6.96971L21.3431 0.605751C20.9526 0.215227 20.3195 0.215227 19.9289 0.605751C19.5384 0.996275 19.5384 1.62944 19.9289 2.01996L25.5858 7.67682L19.9289 13.3337C19.5384 13.7242 19.5384 14.3574 19.9289 14.7479C20.3195 15.1384 20.9526 15.1384 21.3431 14.7479L27.7071 8.38393ZM1 8.67682H27V6.67682H1V8.67682Z" fill="#F4F4F4"/>
</svg>
