<svg width="20" height="21" viewBox="0 0 20 21" fill="none" xmlns="http://www.w3.org/2000/svg">
<path fill-rule="evenodd" clip-rule="evenodd" d="M2.5 4.25C2.5 3.55964 3.05964 3 3.75 3H16.25C16.9404 3 17.5 3.55964 17.5 4.25V16.75C17.5 17.4404 16.9404 18 16.25 18H3.75C3.05964 18 2.5 17.4404 2.5 16.75V4.25ZM16.25 4.25H3.75V16.75H16.25V4.25Z" fill="#22A1D9"/>
<path fill-rule="evenodd" clip-rule="evenodd" d="M13.75 1.75C14.0952 1.75 14.375 2.02982 14.375 2.375V4.875C14.375 5.22018 14.0952 5.5 13.75 5.5C13.4048 5.5 13.125 5.22018 13.125 4.875V2.375C13.125 2.02982 13.4048 1.75 13.75 1.75Z" fill="#22A1D9"/>
<path fill-rule="evenodd" clip-rule="evenodd" d="M6.25 1.75C6.59518 1.75 6.875 2.02982 6.875 2.375V4.875C6.875 5.22018 6.59518 5.5 6.25 5.5C5.90482 5.5 5.625 5.22018 5.625 4.875V2.375C5.625 2.02982 5.90482 1.75 6.25 1.75Z" fill="#22A1D9"/>
<path fill-rule="evenodd" clip-rule="evenodd" d="M2.5 7.375C2.5 7.02982 2.77982 6.75 3.125 6.75H16.875C17.2202 6.75 17.5 7.02982 17.5 7.375C17.5 7.72018 17.2202 8 16.875 8H3.125C2.77982 8 2.5 7.72018 2.5 7.375Z" fill="#22A1D9"/>
</svg>
