<svg width="20" height="21" viewBox="0 0 20 21" fill="none" xmlns="http://www.w3.org/2000/svg">
<path fill-rule="evenodd" clip-rule="evenodd" d="M10 3.625C6.20304 3.625 3.125 6.70304 3.125 10.5C3.125 14.297 6.20304 17.375 10 17.375C13.797 17.375 16.875 14.297 16.875 10.5C16.875 6.70304 13.797 3.625 10 3.625ZM1.875 10.5C1.875 6.01269 5.51269 2.375 10 2.375C14.4873 2.375 18.125 6.01269 18.125 10.5C18.125 14.9873 14.4873 18.625 10 18.625C5.51269 18.625 1.875 14.9873 1.875 10.5Z" fill="#22A1D9"/>
<path fill-rule="evenodd" clip-rule="evenodd" d="M10 5.5C10.3452 5.5 10.625 5.77982 10.625 6.125V9.875H14.375C14.7202 9.875 15 10.1548 15 10.5C15 10.8452 14.7202 11.125 14.375 11.125H10C9.65482 11.125 9.375 10.8452 9.375 10.5V6.125C9.375 5.77982 9.65482 5.5 10 5.5Z" fill="#22A1D9"/>
</svg>
