<svg width="30" height="31" viewBox="0 0 30 31" fill="none" xmlns="http://www.w3.org/2000/svg">
<g clip-path="url(#clip0_94_54)">
<path d="M27.5 20.7848C27.5 25.2443 24.7875 27.9029 20.2375 27.9029H18.75C18.4185 27.9029 18.1005 27.7738 17.8661 27.544C17.6317 27.3143 17.5 27.0027 17.5 26.6777V19.6086C17.5 19.4483 17.5641 19.2943 17.6786 19.1797C17.7931 19.0652 17.9489 18.9992 18.1125 18.996L20.3125 18.9593C20.3986 18.9536 20.4805 18.9206 20.5458 18.8654C20.6112 18.8101 20.6565 18.7356 20.675 18.653L21.1125 16.313C21.1217 16.2598 21.1188 16.2054 21.1041 16.1534C21.0894 16.1015 21.0632 16.0534 21.0275 16.0125C20.9917 15.9716 20.9472 15.9389 20.8971 15.9167C20.8469 15.8945 20.7925 15.8834 20.7375 15.8842L18.075 15.9209C17.91 15.9217 17.7512 15.8594 17.6322 15.7473C17.5132 15.6353 17.4433 15.4822 17.4375 15.3206L17.3875 12.319C17.3875 12.2215 17.427 12.128 17.4973 12.0591C17.5677 11.9902 17.663 11.9514 17.7625 11.9514L20.7625 11.9024C20.862 11.9024 20.9573 11.8637 21.0277 11.7948C21.098 11.7259 21.1375 11.6324 21.1375 11.5349L21.0875 8.59453C21.0875 8.49705 21.048 8.40357 20.9777 8.33464C20.9073 8.26571 20.812 8.22699 20.7125 8.22699L17.3375 8.27599C16.845 8.28397 16.359 8.38696 15.9071 8.57908C15.4552 8.77119 15.0464 9.04868 14.704 9.39567C14.3616 9.74267 14.0922 10.1524 13.9114 10.6014C13.7305 11.0505 13.6417 11.53 13.65 12.0127L13.7125 15.3819C13.7142 15.4623 13.6996 15.5423 13.6697 15.6172C13.6399 15.6922 13.5952 15.7606 13.5383 15.8186C13.4814 15.8767 13.4135 15.9231 13.3382 15.9554C13.263 15.9877 13.1821 16.0051 13.1 16.0067L11.6 16.0312C11.5005 16.0312 11.4052 16.0699 11.3348 16.1388C11.2645 16.2078 11.225 16.3012 11.225 16.3987L11.2625 18.7265C11.2625 18.824 11.302 18.9175 11.3723 18.9864C11.4427 19.0553 11.538 19.0941 11.6375 19.0941L13.1375 19.0696C13.3025 19.0688 13.4613 19.1311 13.5803 19.2431C13.6993 19.3552 13.7692 19.5082 13.775 19.6699L13.8875 26.6532C13.8908 26.8162 13.8609 26.9781 13.7996 27.1296C13.7383 27.2811 13.6467 27.419 13.5303 27.5354C13.4139 27.6518 13.275 27.7442 13.1217 27.8073C12.9684 27.8704 12.8038 27.9029 12.6375 27.9029H9.7625C5.2125 27.9029 2.5 25.2443 2.5 20.7725V10.518C2.5 6.05847 5.2125 3.3999 9.7625 3.3999H20.2375C24.7875 3.3999 27.5 6.05847 27.5 10.518V20.7848Z" fill="white"/>
</g>
<defs>
<clipPath id="clip0_94_54">
<rect width="30" height="29.4036" fill="white" transform="translate(0 0.949707)"/>
</clipPath>
</defs>
</svg>
