<svg width="267" height="93" viewBox="0 0 267 93" fill="none" xmlns="http://www.w3.org/2000/svg">
<path d="M257.111 93H9.88889C4.35111 93 0 87.885 0 81.375V11.625C0 5.115 4.35111 0 9.88889 0H257.111C262.649 0 267 5.115 267 11.625V81.375C267 87.885 262.649 93 257.111 93Z" fill="white"/>
<path d="M93.7467 27.1735C93.7467 28.7557 93.3511 30.1401 92.3622 31.129C91.1756 32.3157 89.7911 32.909 88.0111 32.909C86.2311 32.909 84.8467 32.3157 83.66 31.129C82.4733 29.9423 81.88 28.5579 81.88 26.7779C81.88 24.9979 82.4733 23.6135 83.66 22.4268C84.8467 21.2401 86.2311 20.6468 88.0111 20.6468C88.8022 20.6468 89.5933 20.8446 90.3844 21.2401C91.1756 21.6357 91.7689 22.0312 92.1644 22.6246L91.1756 23.6135C90.3844 22.6246 89.3956 22.229 88.0111 22.229C86.8244 22.229 85.6378 22.6246 84.8467 23.6135C83.8578 24.4046 83.4622 25.5912 83.4622 26.9757C83.4622 28.3601 83.8578 29.5468 84.8467 30.3379C85.8356 31.129 86.8244 31.7223 88.0111 31.7223C89.3956 31.7223 90.3844 31.3268 91.3733 30.3379C91.9667 29.7446 92.3622 28.9535 92.3622 27.9646H88.0111V26.3823H93.7467V27.1735ZM102.844 22.229H97.5044V25.9868H102.449V27.3712H97.5044V31.129H102.844V32.7112H95.9222V20.8446H102.844V22.229ZM109.371 32.7112H107.789V22.229H104.427V20.8446H112.733V22.229H109.371V32.7112ZM118.469 32.7112V20.8446H120.051V32.7112H118.469ZM126.776 32.7112H125.193V22.229H121.831V20.8446H129.94V22.229H126.578V32.7112H126.776ZM145.564 31.129C144.378 32.3157 142.993 32.909 141.213 32.909C139.433 32.909 138.049 32.3157 136.862 31.129C135.676 29.9423 135.082 28.5579 135.082 26.7779C135.082 24.9979 135.676 23.6135 136.862 22.4268C138.049 21.2401 139.433 20.6468 141.213 20.6468C142.993 20.6468 144.378 21.2401 145.564 22.4268C146.751 23.6135 147.344 24.9979 147.344 26.7779C147.344 28.5579 146.751 29.9423 145.564 31.129ZM138.049 30.1401C138.84 30.9312 140.027 31.5246 141.213 31.5246C142.4 31.5246 143.587 31.129 144.378 30.1401C145.169 29.349 145.762 28.1623 145.762 26.7779C145.762 25.3935 145.367 24.2068 144.378 23.4157C143.587 22.6246 142.4 22.0312 141.213 22.0312C140.027 22.0312 138.84 22.4268 138.049 23.4157C137.258 24.2068 136.664 25.3935 136.664 26.7779C136.664 28.1623 137.06 29.349 138.049 30.1401ZM149.52 32.7112V20.8446H151.3L157.036 30.1401V20.8446H158.618V32.7112H157.036L150.904 23.0201V32.7112H149.52Z" fill="#22A1D9" stroke="#4E535A" stroke-width="0.395556" stroke-miterlimit="10"/>
<mask id="path-3-inside-1_24_1956" fill="white">
<path d="M132.071 50.1156C127.557 50.1156 123.983 53.6756 123.983 58.6201C123.983 63.3667 127.557 67.1245 132.071 67.1245C136.585 67.1245 140.159 63.5645 140.159 58.6201C140.159 53.4778 136.585 50.1156 132.071 50.1156ZM132.071 63.5645C129.626 63.5645 127.557 61.389 127.557 58.4223C127.557 55.4556 129.626 53.2801 132.071 53.2801C134.516 53.2801 136.585 55.2578 136.585 58.4223C136.585 61.389 134.516 63.5645 132.071 63.5645ZM114.578 50.1156C110.064 50.1156 106.491 53.6756 106.491 58.6201C106.491 63.3667 110.064 67.1245 114.578 67.1245C119.093 67.1245 122.666 63.5645 122.666 58.6201C122.666 53.4778 119.093 50.1156 114.578 50.1156ZM114.578 63.5645C112.133 63.5645 110.064 61.389 110.064 58.4223C110.064 55.4556 112.133 53.2801 114.578 53.2801C117.024 53.2801 119.093 55.2578 119.093 58.4223C119.093 61.389 117.024 63.5645 114.578 63.5645ZM93.7006 52.6867V56.2467H101.788C101.6 58.2245 100.848 59.8067 99.9075 60.7956C98.779 61.9823 96.8981 63.3667 93.7006 63.3667C88.6221 63.3667 84.8604 59.2134 84.8604 53.8734C84.8604 48.5334 88.8102 44.3801 93.7006 44.3801C96.3338 44.3801 98.4028 45.5667 99.9075 46.9512L102.353 44.3801C100.284 42.4023 97.6504 40.8201 93.8886 40.8201C87.1174 40.8201 81.2867 46.7534 81.2867 53.8734C81.2867 60.9934 87.1174 66.9267 93.8886 66.9267C97.6504 66.9267 100.284 65.7401 102.541 63.169C104.798 60.7956 105.55 57.4334 105.55 54.8623C105.55 54.0712 105.55 53.2801 105.362 52.6867H93.7006ZM179.093 55.4556C178.341 53.4778 176.46 50.1156 172.322 50.1156C168.184 50.1156 164.798 53.4778 164.798 58.6201C164.798 63.3667 168.184 67.1245 172.698 67.1245C176.272 67.1245 178.529 64.7512 179.281 63.3667L176.648 61.389C175.708 62.7734 174.579 63.7623 172.698 63.7623C170.817 63.7623 169.689 62.9712 168.748 61.1912L179.469 56.4445L179.093 55.4556ZM168.184 58.2245C168.184 55.0601 170.629 53.2801 172.322 53.2801C173.639 53.2801 174.955 54.0712 175.331 55.0601L168.184 58.2245ZM159.344 66.3334H162.917V41.6112H159.344V66.3334ZM153.701 51.8956C152.761 50.9067 151.256 49.9178 149.375 49.9178C145.425 49.9178 141.663 53.6756 141.663 58.4223C141.663 63.169 145.237 66.729 149.375 66.729C151.256 66.729 152.761 65.7401 153.513 64.7512H153.701V65.9378C153.701 69.1023 152.008 70.8823 149.375 70.8823C147.306 70.8823 145.801 69.3001 145.425 67.9156L142.416 69.3001C143.356 71.4756 145.613 74.2445 149.563 74.2445C153.701 74.2445 157.087 71.6734 157.087 65.5423V50.5112H153.701V51.8956ZM149.563 63.5645C147.118 63.5645 145.049 61.389 145.049 58.4223C145.049 55.4556 147.118 53.2801 149.563 53.2801C152.008 53.2801 153.889 55.4556 153.889 58.4223C153.889 61.389 152.008 63.5645 149.563 63.5645ZM195.457 41.6112H186.993V66.3334H190.567V57.0378H195.457C199.407 57.0378 203.169 54.0712 203.169 49.3245C203.169 44.5778 199.407 41.6112 195.457 41.6112ZM195.645 53.4778H190.567V44.9734H195.645C198.278 44.9734 199.783 47.3467 199.783 49.1267C199.595 51.3023 198.09 53.4778 195.645 53.4778ZM217.275 49.9178C214.642 49.9178 212.009 51.1045 211.068 53.6756L214.266 55.0601C215.018 53.6756 216.147 53.2801 217.463 53.2801C219.344 53.2801 221.037 54.4667 221.225 56.4445V56.6423C220.661 56.2467 219.156 55.6534 217.651 55.6534C214.266 55.6534 210.88 57.6312 210.88 61.1912C210.88 64.5534 213.702 66.729 216.711 66.729C219.156 66.729 220.285 65.5423 221.225 64.3556H221.413V66.3334H224.799V56.8401C224.423 52.489 221.225 49.9178 217.275 49.9178ZM216.899 63.5645C215.771 63.5645 214.078 62.9712 214.078 61.389C214.078 59.4112 216.147 58.8178 217.84 58.8178C219.344 58.8178 220.097 59.2134 221.037 59.609C220.661 61.9823 218.78 63.5645 216.899 63.5645ZM236.648 50.5112L232.699 61.1912H232.51L228.373 50.5112H224.611L230.818 65.5423L227.244 73.8489H230.818L240.41 50.5112H236.648ZM205.049 66.3334H208.623V41.6112H205.049V66.3334Z"/>
</mask>
<path d="M132.071 50.1156C127.557 50.1156 123.983 53.6756 123.983 58.6201C123.983 63.3667 127.557 67.1245 132.071 67.1245C136.585 67.1245 140.159 63.5645 140.159 58.6201C140.159 53.4778 136.585 50.1156 132.071 50.1156ZM132.071 63.5645C129.626 63.5645 127.557 61.389 127.557 58.4223C127.557 55.4556 129.626 53.2801 132.071 53.2801C134.516 53.2801 136.585 55.2578 136.585 58.4223C136.585 61.389 134.516 63.5645 132.071 63.5645ZM114.578 50.1156C110.064 50.1156 106.491 53.6756 106.491 58.6201C106.491 63.3667 110.064 67.1245 114.578 67.1245C119.093 67.1245 122.666 63.5645 122.666 58.6201C122.666 53.4778 119.093 50.1156 114.578 50.1156ZM114.578 63.5645C112.133 63.5645 110.064 61.389 110.064 58.4223C110.064 55.4556 112.133 53.2801 114.578 53.2801C117.024 53.2801 119.093 55.2578 119.093 58.4223C119.093 61.389 117.024 63.5645 114.578 63.5645ZM93.7006 52.6867V56.2467H101.788C101.6 58.2245 100.848 59.8067 99.9075 60.7956C98.779 61.9823 96.8981 63.3667 93.7006 63.3667C88.6221 63.3667 84.8604 59.2134 84.8604 53.8734C84.8604 48.5334 88.8102 44.3801 93.7006 44.3801C96.3338 44.3801 98.4028 45.5667 99.9075 46.9512L102.353 44.3801C100.284 42.4023 97.6504 40.8201 93.8886 40.8201C87.1174 40.8201 81.2867 46.7534 81.2867 53.8734C81.2867 60.9934 87.1174 66.9267 93.8886 66.9267C97.6504 66.9267 100.284 65.7401 102.541 63.169C104.798 60.7956 105.55 57.4334 105.55 54.8623C105.55 54.0712 105.55 53.2801 105.362 52.6867H93.7006ZM179.093 55.4556C178.341 53.4778 176.46 50.1156 172.322 50.1156C168.184 50.1156 164.798 53.4778 164.798 58.6201C164.798 63.3667 168.184 67.1245 172.698 67.1245C176.272 67.1245 178.529 64.7512 179.281 63.3667L176.648 61.389C175.708 62.7734 174.579 63.7623 172.698 63.7623C170.817 63.7623 169.689 62.9712 168.748 61.1912L179.469 56.4445L179.093 55.4556ZM168.184 58.2245C168.184 55.0601 170.629 53.2801 172.322 53.2801C173.639 53.2801 174.955 54.0712 175.331 55.0601L168.184 58.2245ZM159.344 66.3334H162.917V41.6112H159.344V66.3334ZM153.701 51.8956C152.761 50.9067 151.256 49.9178 149.375 49.9178C145.425 49.9178 141.663 53.6756 141.663 58.4223C141.663 63.169 145.237 66.729 149.375 66.729C151.256 66.729 152.761 65.7401 153.513 64.7512H153.701V65.9378C153.701 69.1023 152.008 70.8823 149.375 70.8823C147.306 70.8823 145.801 69.3001 145.425 67.9156L142.416 69.3001C143.356 71.4756 145.613 74.2445 149.563 74.2445C153.701 74.2445 157.087 71.6734 157.087 65.5423V50.5112H153.701V51.8956ZM149.563 63.5645C147.118 63.5645 145.049 61.389 145.049 58.4223C145.049 55.4556 147.118 53.2801 149.563 53.2801C152.008 53.2801 153.889 55.4556 153.889 58.4223C153.889 61.389 152.008 63.5645 149.563 63.5645ZM195.457 41.6112H186.993V66.3334H190.567V57.0378H195.457C199.407 57.0378 203.169 54.0712 203.169 49.3245C203.169 44.5778 199.407 41.6112 195.457 41.6112ZM195.645 53.4778H190.567V44.9734H195.645C198.278 44.9734 199.783 47.3467 199.783 49.1267C199.595 51.3023 198.09 53.4778 195.645 53.4778ZM217.275 49.9178C214.642 49.9178 212.009 51.1045 211.068 53.6756L214.266 55.0601C215.018 53.6756 216.147 53.2801 217.463 53.2801C219.344 53.2801 221.037 54.4667 221.225 56.4445V56.6423C220.661 56.2467 219.156 55.6534 217.651 55.6534C214.266 55.6534 210.88 57.6312 210.88 61.1912C210.88 64.5534 213.702 66.729 216.711 66.729C219.156 66.729 220.285 65.5423 221.225 64.3556H221.413V66.3334H224.799V56.8401C224.423 52.489 221.225 49.9178 217.275 49.9178ZM216.899 63.5645C215.771 63.5645 214.078 62.9712 214.078 61.389C214.078 59.4112 216.147 58.8178 217.84 58.8178C219.344 58.8178 220.097 59.2134 221.037 59.609C220.661 61.9823 218.78 63.5645 216.899 63.5645ZM236.648 50.5112L232.699 61.1912H232.51L228.373 50.5112H224.611L230.818 65.5423L227.244 73.8489H230.818L240.41 50.5112H236.648ZM205.049 66.3334H208.623V41.6112H205.049V66.3334Z" fill="#22A1D9" stroke="#4E535A" stroke-width="3.95556" mask="url(#path-3-inside-1_24_1956)"/>
<path d="M20.5689 21.8334C19.9755 22.4267 19.7778 23.4156 19.7778 24.6023V68.3112C19.7778 69.4978 20.1733 70.4867 20.7667 71.0801L20.9644 71.2778L45.4889 46.7534V46.3578L20.5689 21.8334Z" fill="url(#paint0_linear_24_1956)"/>
<path d="M53.4 55.0601L45.2911 46.9512V46.3579L53.4 38.249L53.5978 38.4468L63.2889 43.9846C66.0578 45.5668 66.0578 48.1379 63.2889 49.7201L53.4 55.0601Z" fill="url(#paint1_linear_24_1956)"/>
<path d="M53.5978 54.8624L45.2911 46.5557L20.5689 71.2779C21.5578 72.2668 22.9422 72.2668 24.7222 71.4757L53.5978 54.8624Z" fill="url(#paint2_linear_24_1956)"/>
<path d="M53.5978 38.249L24.7222 21.8335C22.9422 20.8446 21.5578 21.0424 20.5689 22.0312L45.2911 46.5557L53.5978 38.249Z" fill="url(#paint3_linear_24_1956)"/>
<path opacity="0.2" d="M53.4 54.6646L24.7222 70.8824C23.14 71.8712 21.7556 71.6735 20.7667 70.8824L20.5689 71.0801L20.7667 71.2779C21.7556 72.069 23.14 72.2668 24.7222 71.2779L53.4 54.6646Z" fill="white"/>
<path opacity="0.12" d="M20.5689 70.8824C19.9755 70.289 19.7778 69.3001 19.7778 68.1135V68.3113C19.7778 69.4979 20.1733 70.4868 20.7667 71.0801V70.8824H20.5689ZM63.2889 49.1268L53.4 54.6646L53.5978 54.8624L63.2889 49.3246C64.6733 48.5335 65.2667 47.5446 65.2667 46.5557C65.2667 47.5446 64.4755 48.3357 63.2889 49.1268Z" fill="white"/>
<path opacity="0.25" d="M24.7222 22.0312L63.2889 43.9845C64.4755 44.7757 65.2667 45.5668 65.2667 46.5557C65.2667 45.5668 64.6733 44.5779 63.2889 43.7868L24.7222 21.8334C21.9533 20.2512 19.7778 21.4379 19.7778 24.6023V24.8001C19.7778 21.8334 21.9533 20.449 24.7222 22.0312Z" fill="#22A1D9"/>
<defs>
<linearGradient id="paint0_linear_24_1956" x1="43.1155" y1="24.2265" x2="9.9225" y2="57.4176" gradientUnits="userSpaceOnUse">
<stop stop-color="#00A0FF"/>
<stop offset="0.007" stop-color="#00A1FF"/>
<stop offset="0.26" stop-color="#00BEFF"/>
<stop offset="0.512" stop-color="#00D2FF"/>
<stop offset="0.76" stop-color="#00DFFF"/>
<stop offset="1" stop-color="#00E3FF"/>
</linearGradient>
<linearGradient id="paint1_linear_24_1956" x1="66.9162" y1="46.5577" x2="19.0599" y2="46.5577" gradientUnits="userSpaceOnUse">
<stop offset="1" stop-color="#22A1D9"/>
</linearGradient>
<linearGradient id="paint2_linear_24_1956" x1="49.1023" y1="51.0967" x2="4.09205" y2="96.1069" gradientUnits="userSpaceOnUse">
<stop offset="1" stop-color="#22A1D9"/>
</linearGradient>
<linearGradient id="paint3_linear_24_1956" x1="14.4319" y1="7.34822" x2="34.532" y2="27.4484" gradientUnits="userSpaceOnUse">
<stop offset="1" stop-color="#22A1D9"/>
</linearGradient>
</defs>
</svg>
