<svg width="24" height="24" viewBox="0 0 24 24" fill="none" xmlns="http://www.w3.org/2000/svg">
<path d="M17.8335 1.8967C19.5931 2.9127 21.0569 4.37065 22.0799 6.12622C23.103 7.88179 23.6497 9.8741 23.6662 11.9059C23.6826 13.9378 23.168 15.9386 22.1735 17.7105C21.179 19.4824 19.7389 20.9638 17.9959 22.0081C16.2529 23.0524 14.2674 23.6233 12.2359 23.6644C10.2045 23.7056 8.19747 23.2154 6.41364 22.2425C4.62982 21.2696 3.13101 19.8476 2.06561 18.1175C1.0002 16.3873 0.40514 14.4089 0.33933 12.378L0.333496 12L0.33933 11.622C0.404667 9.60719 0.990968 7.64366 2.04108 5.92286C3.09118 4.20207 4.56926 2.78273 6.3312 1.80323C8.09315 0.823736 10.0788 0.3175 12.0947 0.333881C14.1105 0.350263 16.0877 0.888701 17.8335 1.8967ZM16.325 8.84187C16.1241 8.641 15.8568 8.52033 15.5733 8.5025C15.2898 8.48467 15.0095 8.57091 14.785 8.74504L14.6753 8.84187L10.8335 12.6825L9.325 11.1752L9.21533 11.0784C8.99084 10.9044 8.7106 10.8182 8.42713 10.8361C8.14367 10.854 7.87647 10.9747 7.67564 11.1755C7.4748 11.3763 7.35413 11.6435 7.33624 11.927C7.31836 12.2105 7.40449 12.4907 7.5785 12.7152L7.67533 12.8249L10.0087 15.1582L10.1183 15.255C10.3229 15.4138 10.5745 15.4999 10.8335 15.4999C11.0925 15.4999 11.3441 15.4138 11.5487 15.255L11.6583 15.1582L16.325 10.4915L16.4218 10.3819C16.596 10.1574 16.6822 9.87711 16.6644 9.59358C16.6465 9.31005 16.5259 9.04276 16.325 8.84187Z" fill="#9DBF2B"/>
</svg>
