<svg width="70" height="70" viewBox="0 0 70 70" fill="none" xmlns="http://www.w3.org/2000/svg">
<path d="M12.544 38.0652C14.0607 40.3513 15.7775 42.5832 17.6902 44.729C18.4664 45.5998 19.2738 46.457 20.1141 47.2972C20.5481 47.7312 20.9877 48.1535 21.4301 48.5704C21.8469 49.0127 22.2692 49.4523 22.7031 49.8863C23.5434 50.7265 24.4006 51.5339 25.2714 52.3102C27.4172 54.2229 29.6491 55.9397 31.9352 57.4564C42.8588 64.7036 55.0171 67.3704 64.9179 64.9031C65.7423 60.6192 65.9917 56.3091 65.6546 52.1004C65.4581 49.6459 65.0609 47.2267 64.465 44.8668C58.8544 43.4502 52.9054 43.1658 46.9579 43.9939C45.2021 45.07 43.4871 46.2573 41.8237 47.5553C40.8044 47.0246 39.8066 46.4478 38.8317 45.8267C36.4463 44.3068 34.2001 42.5188 32.1353 40.4541L29.5463 37.8651C27.4816 35.8003 25.6936 33.5541 24.1737 31.1687C23.5526 30.1938 22.9758 29.1959 22.4451 28.1767C23.7431 26.5133 24.9304 24.7983 26.0065 23.0425C26.8346 17.095 26.5502 11.146 25.1336 5.53536C22.7737 4.93954 20.3545 4.54229 17.8999 4.34575C13.6912 4.00871 9.38124 4.25809 5.09732 5.08248C2.63002 14.9833 5.29681 27.1416 12.544 38.0652Z" fill="#22A1D9"/>
</svg>
