<svg width="30" height="31" viewBox="0 0 30 31" fill="none" xmlns="http://www.w3.org/2000/svg">
<g clip-path="url(#clip0_94_59)">
<path d="M20.2375 3.40039H9.7625C5.2125 3.40039 2.5 6.05896 2.5 10.5185V20.773C2.5 25.2448 5.2125 27.9034 9.7625 27.9034H20.225C24.775 27.9034 27.4875 25.2448 27.4875 20.7852V10.5185C27.5 6.05896 24.7875 3.40039 20.2375 3.40039ZM15 20.4055C14.0408 20.4055 13.1031 20.1267 12.3055 19.6043C11.5079 19.082 10.8863 18.3396 10.5192 17.471C10.1521 16.6024 10.0561 15.6466 10.2432 14.7245C10.4303 13.8024 10.8922 12.9554 11.5705 12.2906C12.2488 11.6258 13.113 11.1731 14.0538 10.9896C14.9946 10.8062 15.9698 10.9004 16.856 11.2601C17.7422 11.6199 18.4997 12.2292 19.0326 13.0109C19.5655 13.7927 19.85 14.7117 19.85 15.6519C19.8487 16.9122 19.3373 18.1205 18.428 19.0117C17.5187 19.9029 16.2859 20.4042 15 20.4055ZM22.4 9.37912C22.3366 9.52753 22.2478 9.66426 22.1375 9.78341C22.0159 9.89154 21.8764 9.97854 21.725 10.0407C21.4977 10.1362 21.2464 10.1627 21.0035 10.1168C20.7606 10.071 20.5374 9.95484 20.3625 9.78341C20.2522 9.66426 20.1634 9.52753 20.1 9.37912C20.0341 9.23241 20.0001 9.07386 20.0001 8.91356C20.0001 8.75326 20.0341 8.59471 20.1 8.448C20.1604 8.29807 20.2495 8.16084 20.3625 8.0437C20.508 7.90246 20.6867 7.79842 20.8829 7.74074C21.0791 7.68306 21.2867 7.6735 21.4875 7.71291C21.5703 7.72427 21.6506 7.74912 21.725 7.78642C21.8047 7.8132 21.8803 7.85028 21.95 7.89669C22.0155 7.94191 22.0781 7.99101 22.1375 8.0437C22.2505 8.16084 22.3396 8.29807 22.4 8.448C22.4659 8.59471 22.4999 8.75326 22.4999 8.91356C22.4999 9.07386 22.4659 9.23241 22.4 9.37912Z" fill="white"/>
</g>
<defs>
<clipPath id="clip0_94_59">
<rect width="30" height="29.4036" fill="white" transform="translate(0 0.949707)"/>
</clipPath>
</defs>
</svg>
