<svg width="95" height="95" viewBox="0 0 95 95" fill="none" xmlns="http://www.w3.org/2000/svg">
<circle cx="47.5" cy="47.5" r="47.5" fill="#22A1D9" fill-opacity="0.26"/>
<g clip-path="url(#clip0_31_33)">
<path fill-rule="evenodd" clip-rule="evenodd" d="M74.1212 36.1621C80.5243 36.1621 85.7144 41.3525 85.7144 47.7553C85.7144 54.1578 80.5243 59.3482 74.1212 59.3482C70.4394 59.3482 67.1585 57.6319 65.0348 54.9561C62.9124 57.6573 59.6157 59.3928 55.9131 59.3928C52.4929 59.3928 49.4184 57.9117 47.2966 55.5559C45.1764 57.8857 42.1195 59.3482 38.7206 59.3482C34.9445 59.3482 31.5895 57.5428 29.473 54.7478C27.3559 57.5428 24.0016 59.3482 20.225 59.3482C13.8219 59.3482 8.63184 54.1575 8.63184 47.7553C8.63184 41.3525 13.8219 36.1621 20.225 36.1621C24.0012 36.1621 27.3562 37.9676 29.4727 40.7626C31.5898 37.9676 34.9441 36.1621 38.7206 36.1621C42.1409 36.1621 45.2154 37.6432 47.3372 39.999C49.4574 37.6692 52.5143 36.2067 55.9131 36.2067C59.5952 36.2067 62.8759 37.923 64.9995 40.5988C67.1219 37.8976 70.419 36.1621 74.1212 36.1621Z" fill="black" fill-opacity="0.5"/>
<path fill-rule="evenodd" clip-rule="evenodd" d="M73.4897 35C79.8925 35 85.0829 40.1904 85.0829 46.5932C85.0829 52.9957 79.8922 58.1861 73.4897 58.1861C69.8076 58.1861 66.5266 56.4698 64.403 53.7934C62.2809 56.4952 58.9838 58.2307 55.2813 58.2307C51.8611 58.2307 48.7869 56.7496 46.6651 54.3938C44.5449 56.7236 41.488 58.1861 38.0891 58.1861C34.3126 58.1861 30.9577 56.3804 28.8412 53.5854C26.7246 56.3804 23.37 58.1861 19.5932 58.1861C13.1904 58.1861 8 52.9957 8 46.5932C8 40.1904 13.1904 35 19.5932 35C23.37 35 26.7246 36.8058 28.8412 39.6008C30.9577 36.8058 34.3126 35 38.0891 35C41.5094 35 44.5839 36.4811 46.7056 38.8369C48.8262 36.5074 51.8827 35.0446 55.2816 35.0446C58.9634 35.0446 62.2447 36.7609 64.3683 39.4373C66.4901 36.7355 69.7871 35 73.4897 35Z" fill="white"/>
<path fill-rule="evenodd" clip-rule="evenodd" d="M74.7391 40.6669C74.7391 40.9418 74.6299 41.2054 74.4356 41.3997C74.2412 41.594 73.9776 41.7032 73.7028 41.7032C73.428 41.7032 73.1644 41.594 72.97 41.3997C72.7757 41.2054 72.6665 40.9418 72.6665 40.6669V40.6645C72.6665 40.3896 72.7757 40.126 72.97 39.9317C73.1644 39.7374 73.428 39.6282 73.7028 39.6282C73.9776 39.6282 74.2412 39.7374 74.4356 39.9317C74.6299 40.126 74.7391 40.3896 74.7391 40.6645V40.6669Z" fill="#EC8E14"/>
<path fill-rule="evenodd" clip-rule="evenodd" d="M17.8412 42.3755V46.9565C17.8412 47.6263 17.9455 48.1259 18.1551 48.4552C18.3643 48.7845 18.7354 48.9495 19.2694 48.9495C19.8754 48.9495 20.3146 48.7691 20.5867 48.4078C20.8585 48.0472 20.9953 47.4536 20.9953 46.6275V42.3755H23.2226L23.2223 49.7824C23.2384 52.1605 21.8601 53.8552 19.5916 54.1715L18.845 52.4604C20.3428 52.4419 21.1021 51.3514 21.1021 49.7827V49.3578H21.1045V49.3572H21.0578C20.7755 49.8276 20.4087 50.1678 19.959 50.377C19.5096 50.5863 19.0496 50.6909 18.5785 50.6909C17.9827 50.6909 17.4933 50.6126 17.112 50.4553C16.73 50.2987 16.4295 50.0765 16.21 49.7889C15.9903 49.5011 15.8355 49.1507 15.7473 48.7375C15.6582 48.3246 15.6133 47.8668 15.6133 47.3647V42.3752L17.8412 42.3755ZM54.3972 39.3831V44.6635L56.3423 42.2997H58.838L56.2909 45.4383L57.0709 47.2146C57.5386 48.2819 57.8924 48.9031 58.838 48.8198V50.6367C57.1474 50.8336 56.2216 49.9146 55.4601 48.1482L54.9284 46.9218L54.3972 47.7077V50.4108H52.325V40.03L54.3972 39.3831ZM36.5129 42.3477V46.9292C36.5129 47.5987 36.6169 48.098 36.8265 48.4273C37.0354 48.7567 37.4069 48.9217 37.9408 48.9217C38.5471 48.9217 38.986 48.7412 39.2584 48.3803C39.5305 48.0194 39.6667 47.426 39.6667 46.5996V42.3477H41.894V50.4587H39.7766V49.3293H39.7292C39.4466 49.8001 39.0804 50.1402 38.6304 50.3489C38.181 50.5581 37.721 50.6627 37.2499 50.6627C36.6538 50.6627 36.165 50.5844 35.7828 50.4275C35.4011 50.2706 35.1009 50.0483 34.8814 49.7608C34.6614 49.4729 34.5066 49.1225 34.4184 48.7093C34.3293 48.2964 34.285 47.8386 34.285 47.3366V42.3477H36.5129ZM74.7391 42.8714V50.4179H72.6666V43.5189L74.7391 42.8714Z" fill="#222222"/>
</g>
<defs>
<clipPath id="clip0_31_33">
<rect width="78" height="24.4524" fill="white" transform="translate(8 35)"/>
</clipPath>
</defs>
</svg>
