<svg width="95" height="95" viewBox="0 0 95 95" fill="none" xmlns="http://www.w3.org/2000/svg">
<circle cx="47.5" cy="47.5" r="47.5" fill="#22A1D9" fill-opacity="0.26"/>
<g clip-path="url(#clip0_31_34)">
<path d="M18.5993 44.4749H8V47.6456H20.0634V44.4749H18.5993ZM18.4723 49.949H8V53.1197H9.59107V53.1196H18.4723V53.1197H20.0634V49.949H18.4723ZM61.1061 52.7232H56.3502C55.5576 52.7232 55.0868 52.3018 55.0868 51.5338C55.0868 50.7663 55.5576 50.3453 56.3502 50.3453H61.1061V52.7232ZM58.9016 41.7255H54.5033L52.558 41.7254V44.8959H54.5033L58.703 44.8958C60.5825 44.8958 61.0906 45.6177 61.1052 47.2738H56.2013C53.3033 47.2738 51.718 48.76 51.718 51.5338C51.718 54.2838 53.3033 55.7948 56.2013 55.7948H63.9052L63.9082 55.7946H64.5242V47.1506C64.5242 43.484 63.137 41.7255 58.9016 41.7255ZM76.7216 52.6241H72.7337C70.5786 52.6241 69.7854 51.5839 69.7854 48.7603C69.7854 45.9367 70.5786 44.8961 72.7337 44.8961H76.6718L76.6779 44.8959H77.293V41.7254H72.3867C68.0028 41.7254 66.318 43.9053 66.318 48.7603C66.318 53.6149 68.0028 55.7946 72.3867 55.7946H77.3402V52.6242H76.7246L76.7216 52.6241ZM33.322 52.6242H29.5698C27.7785 52.6242 26.9462 51.9901 26.716 50.3956H32.2544V50.3976H34.1996V49.8327C34.2009 49.8139 34.202 49.7951 34.202 49.7756V47.8436C34.202 47.8242 34.2009 47.8053 34.1996 47.7865V47.2272H33.6529C33.6296 47.2252 33.6062 47.2241 33.5828 47.2241H26.7032C26.9147 45.5721 27.7447 44.8959 29.5698 44.8959H35.2175V41.7254H33.5193V41.7257H29.2232C24.8385 41.7257 23.155 43.9051 23.155 48.76C23.155 53.6146 24.8385 55.7949 29.2232 55.7949H34.6481C34.6501 55.7949 34.6521 55.7947 34.6542 55.7946H35.2673V52.6242H33.322ZM86.3701 52.6242H83.6205C82.952 52.6242 82.5548 52.1539 82.5548 51.3116V44.8959H86.6916V41.7257H82.5548V39.05H79.1372V51.559C79.1372 54.4576 80.4996 55.7949 83.3232 55.7949H86.3701L86.3763 55.7946H86.9897V52.6242H86.3701ZM50.8687 55.1509L45.8657 48.5475L50.5468 42.3694V42.3693L51.0346 41.7254H47.0202L46.6827 42.171L46.6826 42.1711L43.859 45.8983L41.0349 42.1711L41.0348 42.1709L40.6972 41.7254H36.5345L41.7773 48.6457L36.3609 55.7949L37.7284 55.7946H40.3753L40.7129 55.3492L40.713 55.349L43.7846 51.295L46.8562 55.349V55.3491L47.1938 55.7946H51.3565L50.8687 55.1509Z" fill="#E1141D"/>
</g>
<defs>
<clipPath id="clip0_31_34">
<rect width="79" height="16.7945" fill="white" transform="translate(8 39)"/>
</clipPath>
</defs>
</svg>
