<svg width="102" height="95" viewBox="0 0 102 95" fill="none" xmlns="http://www.w3.org/2000/svg">
<circle cx="54.5" cy="47.5" r="47.5" fill="#22A1D9" fill-opacity="0.26"/>
<path d="M26.8112 67.6857H26.1514L24.6436 63.4498C24.5188 63.1014 24.3697 62.6652 24.2196 62.1671H24.1952C24.0461 62.653 23.8965 63.0638 23.7596 63.4498L22.1894 67.6857H21.5169L18.664 59.4381H19.6484L21.4808 64.9196C21.6294 65.3826 21.7664 65.7919 21.8785 66.2061H21.9028C22.0149 65.8065 22.1757 65.3972 22.3385 64.9488L23.7601 61.0599L23.1947 59.442H24.1548L26.0359 64.8709C26.1967 65.3484 26.3575 65.7432 26.4696 66.1428H26.494C26.5915 65.7334 26.7035 65.3582 26.8546 64.9098L28.648 59.442H29.608L26.8059 67.6876L26.8112 67.6857ZM33.9409 67.0751C33.4789 67.5478 32.8312 67.8109 32.071 67.8109C31.3351 67.8109 30.6967 67.5624 30.2386 67.0897C29.7026 66.5439 29.4151 65.7105 29.4151 64.7359C29.4151 63.7661 29.7123 62.9571 30.2386 62.4064C30.7114 61.924 31.3449 61.6462 32.0808 61.6462C32.841 61.6462 33.4745 61.924 33.9472 62.4064C34.4687 62.9571 34.766 63.7661 34.766 64.7359C34.766 65.7105 34.4638 66.5292 33.9326 67.0799M32.0759 62.421C30.9648 62.421 30.3312 63.3177 30.3312 64.7164C30.3312 66.1101 30.9891 67.0361 32.0856 67.0361C33.1821 67.0361 33.84 66.1131 33.84 64.7188C33.84 63.3226 33.2016 62.4254 32.071 62.4254M36.9784 67.8202C36.2572 67.8202 35.9453 67.3572 35.9453 66.7354V58.865H36.8517V66.3143C36.8517 66.8748 36.9882 66.9869 37.3342 66.9869C37.3927 66.9869 37.495 66.9869 37.6461 66.9513L37.7582 67.6106C37.4853 67.7481 37.2708 67.8104 36.9736 67.8104M40.4141 67.8104C39.5662 67.8104 39.1519 67.3119 39.1519 66.5517V62.5643H38.1968V61.7919H39.1519V60.4971L40.0594 60.1861V61.7929H41.8674L41.5433 62.5648H40.0667V66.2734C40.0667 66.7705 40.2519 66.9946 40.6393 66.9946C41.0633 66.9946 41.4483 66.7559 41.6856 66.5707L41.9712 67.2188C41.5374 67.5405 40.9624 67.8036 40.4166 67.8036M43.3113 64.8894C43.3113 66.0102 43.9595 67.0044 45.2655 67.0044C45.7646 67.0044 46.3133 66.8046 46.6617 66.5804L46.938 67.2042C46.5141 67.5502 45.7655 67.7987 45.0813 67.7987C43.2372 67.7987 42.3401 66.288 42.3401 64.6067C42.3401 62.8981 43.3108 61.6291 44.7304 61.6291C46.2509 61.6291 47.0842 62.8377 47.0842 64.6672V64.8791H43.3123L43.3113 64.8894ZM44.7441 62.4089C43.8718 62.4089 43.3245 63.1788 43.3245 64.1145H46.1023C46.1023 63.2909 45.6442 62.404 44.7475 62.404M51.0974 62.6915C50.9756 62.6428 50.7855 62.5906 50.537 62.5906C50.191 62.5906 49.6159 62.8879 49.2407 63.2973V67.6686H48.3294V61.787H49.0799L49.2066 62.4595C50.0156 61.7261 50.4654 61.6384 50.8879 61.6384C51.1496 61.6384 51.3752 61.7378 51.4873 61.8138L51.1004 62.6974L51.0974 62.6915ZM83.8218 64.8845C83.8218 66.0054 84.4699 67.001 85.776 67.001C86.2731 67.001 86.8237 66.8012 87.1698 66.577L87.4475 67.2008C87.0235 67.5468 86.2779 67.7953 85.5927 67.7953C83.7506 67.7953 82.8539 66.2846 82.8539 64.6033C82.8539 62.8976 83.8257 61.6257 85.2467 61.6257C86.7648 61.6257 87.6006 62.8343 87.6006 64.6618V64.8713H83.8286L83.8218 64.8845ZM85.2594 62.4089C84.3871 62.4089 83.8388 63.1803 83.8388 64.1145H86.6166C86.6176 63.2924 86.1566 62.4074 85.2599 62.4074M91.6098 62.6949C91.4831 62.6462 91.2979 62.5926 91.0494 62.5926C90.6985 62.5926 90.1283 62.8913 89.7531 63.3041V67.6755H88.8418V61.7953H89.5884L89.7127 62.4678C90.5231 61.732 90.9714 61.6442 91.3939 61.6442C91.6561 61.6442 91.8813 61.7446 91.9934 61.8197L91.6064 62.7042L91.6098 62.6949ZM53.4127 67.8022C52.5648 67.8022 52.0531 67.578 51.6681 67.3538L52.0141 66.6423C52.288 66.8139 52.7987 67.0663 53.4469 67.0663C54.1681 67.0663 54.6944 66.7398 54.6944 66.194C54.6944 64.7466 52.0141 65.2583 52.0141 63.192C52.0141 62.344 52.6247 61.6325 53.9703 61.6325C54.5916 61.6325 55.0643 61.769 55.4517 61.9444V62.7437C55.0424 62.5682 54.6184 62.3942 54.0053 62.3942C53.4084 62.3942 52.9103 62.6038 52.9103 63.1399C52.9103 64.4605 55.6394 64.1243 55.6394 66.0541C55.6394 67.287 54.6208 67.7987 53.4074 67.7987M60.4103 67.6769H59.5039V59.4751H60.4152V63.2505H60.4294L63.48 59.5009H64.6131L61.2359 63.5361L64.9152 67.6833H63.7067L60.4318 63.9698H60.422M66.8256 67.8051C66.1034 67.8051 65.7924 67.3421 65.7924 66.7183V58.8582H66.7013V66.3095C66.7013 66.8699 66.8378 66.982 67.1886 66.982C67.252 66.982 67.3534 66.982 67.5005 66.9479L67.6126 67.6058C67.3397 67.7422 67.1287 67.8056 66.828 67.8056M72.4567 67.6789L72.2228 67.0648C71.7842 67.4352 71.1019 67.8007 70.3159 67.8007C69.5215 67.8007 68.5244 67.3865 68.5244 65.7295V61.7821H69.4309V65.6418C69.4309 66.6262 69.8451 67.0112 70.581 67.0112C71.3266 67.0112 71.9016 66.5385 72.1502 66.2266V61.7821H73.059V65.2081C73.059 67.0648 73.098 67.4255 73.1858 67.674H72.4611L72.4567 67.6789ZM78.215 62.9566L76.7579 67.6789H75.9636L73.9923 61.787H74.9133L76.3559 66.4313H76.3948L77.852 61.7821H78.6736L80.1424 66.441H80.1775L81.5971 61.7821H82.4802L80.5347 67.6789H79.7111L78.2394 62.9566M14.6426 66.6067H14.9739C15.0422 66.6067 15.1006 66.6165 15.1445 66.635C15.2844 66.6764 15.3526 66.7827 15.3526 66.9045C15.3526 67.0799 15.221 67.1677 15.0992 67.1969V67.2018C15.1723 67.2359 15.2844 67.4503 15.4111 67.6842H15.1625C15.0212 67.4308 14.9384 67.2602 14.8896 67.2554H14.8506V67.6842H14.6313V66.6072L14.6426 66.6067ZM14.9106 67.0843C15.0227 67.0843 15.1201 67.0405 15.1201 66.9284C15.1201 66.8631 15.0909 66.8134 15.0339 66.7968C15.0037 66.7822 14.9657 66.7822 14.9169 66.7822H14.8584V67.0843H14.9121H14.9106Z" fill="#474747"/>
<path d="M56.6859 22.4298C55.5385 22.154 54.3509 22 53.12 22C51.8892 22 50.6985 22.153 49.5542 22.4308V26.4264H56.6859V22.4308V22.4298Z" fill="#A0C4E6"/>
<path d="M49.5542 33.5547H56.6859V40.6884H49.5542V33.5547Z" fill="#EF3E42"/>
<path d="M49.5542 40.6875H56.6859V47.8202H49.5542V40.6875Z" fill="#9ACD6E"/>
<path d="M49.5542 51.8118C50.6985 52.0885 51.8892 52.2425 53.12 52.2425C54.3509 52.2425 55.5395 52.0916 56.6859 51.8198V47.8242H49.5542V51.8198V51.8118Z" fill="#429ED6"/>
<path d="M49.5541 26.4219H56.6858V33.5546H49.5541V26.4219ZM42.4214 33.5536H49.5541V40.6873H42.4214V33.5536Z" fill="#CAE3B2"/>
<path d="M42.4214 40.6875H49.5541V47.8202H42.4214V40.6875Z" fill="#7AC143"/>
<path d="M42.4214 47.8203C44.3538 49.7527 46.8095 51.1486 49.5541 51.8129V47.8274H42.4214V47.8203Z" fill="#007BC6"/>
<path d="M42.4214 26.4219H49.5541V33.5546H42.4214V26.4219Z" fill="#9ACD6E"/>
<path d="M49.5541 22.4297C46.8095 23.0939 44.3528 24.4909 42.4214 26.4223H49.5541V22.4297Z" fill="#429ED6"/>
<path d="M42.4213 47.8202V40.6875H38.4287C39.095 43.4301 40.4899 45.8908 42.4213 47.8202Z" fill="#007BC6"/>
<path d="M42.4213 26.4219C40.4889 28.3543 39.0949 30.81 38.4297 33.5546H42.4253V26.4279L42.4213 26.4219Z" fill="#429ED6"/>
<path d="M56.6855 33.5547H63.8172V40.6884H56.6855V33.5547Z" fill="#9ACD6E"/>
<path d="M56.6855 40.6875H63.8172V47.8202H56.6855V40.6875Z" fill="#7AC143"/>
<path d="M63.8182 47.8203H56.6855V51.8129C59.4281 51.1486 61.8889 49.7597 63.8182 47.8274V47.8203Z" fill="#007BC6"/>
<path d="M56.6855 26.4219H63.8172V33.5546H56.6855V26.4219Z" fill="#7AC143"/>
<path d="M56.6855 22.4297V26.4223H63.8172C61.8879 24.4899 59.4291 23.0939 56.6855 22.4307V22.4297ZM63.8182 47.8193C65.7506 45.889 67.1445 43.4312 67.8098 40.6866H63.8142V47.8193H63.8182ZM63.8172 26.4223L63.8182 33.5549H67.8098C67.1455 30.8174 65.7466 28.3617 63.8142 26.4293L63.8172 26.4223Z" fill="#007BC6"/>
<path d="M38.4287 33.5547C38.153 34.702 38 35.8896 38 37.1225C38 38.3534 38.153 39.543 38.4298 40.6884H42.4253V33.5547H38.4287Z" fill="#A0C4E6"/>
<path d="M67.8108 40.6864C68.0866 39.541 68.2406 38.3514 68.2406 37.1205C68.2406 35.8896 68.0896 34.702 67.8179 33.5547H63.8223V40.6904H67.8179L67.8108 40.6864Z" fill="#429ED6"/>
<path d="M70.9994 46.7416C70.9994 47.8759 70.0795 48.7948 68.9463 48.7948C67.811 48.7948 66.8911 47.8759 66.8911 46.7416C66.8911 45.6074 67.811 44.6885 68.9443 44.6885C70.0795 44.6885 70.9994 45.6074 70.9994 46.7416ZM68.9443 45.1212C68.0485 45.1212 67.3239 45.8459 67.3239 46.7416C67.3239 47.6374 68.0485 48.362 68.9443 48.362C69.84 48.362 70.5667 47.6374 70.5667 46.7416C70.5667 45.8459 69.84 45.1212 68.9443 45.1212Z" fill="#474747"/>
</svg>
