<svg width="30" height="31" viewBox="0 0 30 31" fill="none" xmlns="http://www.w3.org/2000/svg">
<g clip-path="url(#clip0_94_64)">
<path d="M20.2249 27.9029H9.76379C5.21629 27.9029 2.5 25.237 2.5 20.7726V10.5181C2.5 6.061 5.21504 3.39998 9.76379 3.39998H20.2386C21.212 3.35126 22.1854 3.49323 23.1021 3.81761C24.0188 4.14199 24.8603 4.64225 25.5774 5.28915C26.2345 5.99229 26.7421 6.81678 27.0703 7.71439C27.3985 8.612 27.5406 9.56475 27.4887 10.5169V20.7836C27.4875 25.242 24.7724 27.9029 20.2249 27.9029ZM18.1137 14.6346C19.0562 14.6346 20.0061 15.3501 20.0061 16.9476V22.2746H23.2336V15.8487C23.2925 15.332 23.2376 14.8089 23.0725 14.3147C22.9075 13.8206 22.6362 13.367 22.2769 12.9845C21.9177 12.6019 21.4788 12.2994 20.99 12.0973C20.5012 11.8952 19.9739 11.7983 19.4437 11.8131C18.7862 11.7855 18.1328 11.9259 17.5473 12.2203C16.9618 12.5148 16.4644 12.9532 16.1038 13.4927V12.1255H12.89V22.2734H16.105V16.9465C16.0728 16.6637 16.1 16.3774 16.185 16.1054C16.27 15.8333 16.4109 15.5812 16.5991 15.3645C16.7873 15.1479 17.0188 14.9714 17.2794 14.8458C17.5399 14.7203 17.8237 14.6484 18.1137 14.6346ZM7.70386 12.1267V22.2746H10.9399V12.1267H7.70386ZM9.32251 7.688C8.89538 7.69027 8.48658 7.85841 8.18573 8.15558C7.88487 8.45275 7.71659 8.85471 7.71759 9.27335C7.71659 9.69199 7.88487 10.0939 8.18573 10.3911C8.48658 10.6883 8.89538 10.8564 9.32251 10.8587C9.74952 10.8564 10.158 10.6882 10.4587 10.391C10.7593 10.0938 10.9275 9.69187 10.9262 9.27335C10.9275 8.85482 10.7593 8.45286 10.4587 8.15565C10.158 7.85845 9.74952 7.69027 9.32251 7.688Z" fill="white"/>
</g>
<defs>
<clipPath id="clip0_94_64">
<rect width="30" height="29.4036" fill="white" transform="translate(0 0.949707)"/>
</clipPath>
</defs>
</svg>
