<svg width="20" height="21" viewBox="0 0 20 21" fill="none" xmlns="http://www.w3.org/2000/svg">
<path fill-rule="evenodd" clip-rule="evenodd" d="M3.75 18.625C3.75 18.2798 4.02982 18 4.375 18H15.625C15.9702 18 16.25 18.2798 16.25 18.625C16.25 18.9702 15.9702 19.25 15.625 19.25H4.375C4.02982 19.25 3.75 18.9702 3.75 18.625Z" fill="#22A1D9"/>
<path fill-rule="evenodd" clip-rule="evenodd" d="M10 6.75C8.96447 6.75 8.125 7.58947 8.125 8.625C8.125 9.66053 8.96447 10.5 10 10.5C11.0355 10.5 11.875 9.66053 11.875 8.625C11.875 7.58947 11.0355 6.75 10 6.75ZM6.875 8.625C6.875 6.89911 8.27411 5.5 10 5.5C11.7259 5.5 13.125 6.89911 13.125 8.625C13.125 10.3509 11.7259 11.75 10 11.75C8.27411 11.75 6.875 10.3509 6.875 8.625Z" fill="#22A1D9"/>
<path fill-rule="evenodd" clip-rule="evenodd" d="M10 3C8.50816 3 7.07742 3.59263 6.02252 4.64752C4.96763 5.70242 4.375 7.13316 4.375 8.625C4.375 11.2125 5.8199 13.5685 7.34663 15.3243C8.10236 16.1933 8.85969 16.8941 9.42822 17.3773C9.65306 17.5684 9.84765 17.7249 10 17.8437C10.1523 17.7249 10.3469 17.5684 10.5718 17.3773C11.1403 16.8941 11.8976 16.1933 12.6534 15.3243C14.1801 13.5685 15.625 11.2125 15.625 8.625C15.625 7.13316 15.0324 5.70242 13.9775 4.64752C12.9226 3.59263 11.4918 3 10 3ZM10 18.625C9.64159 19.137 9.64141 19.1369 9.64121 19.1368L9.64069 19.1364L9.63923 19.1354L9.63461 19.1321L9.61872 19.1208C9.60521 19.1112 9.58595 19.0973 9.5613 19.0793C9.51202 19.0433 9.4412 18.9908 9.35192 18.9226C9.17342 18.7862 8.92077 18.5865 8.61866 18.3297C8.01531 17.8169 7.21014 17.0723 6.40337 16.1445C4.8051 14.3065 3.125 11.6625 3.125 8.625C3.125 6.80164 3.84933 5.05295 5.13864 3.76364C6.42795 2.47433 8.17664 1.75 10 1.75C11.8234 1.75 13.572 2.47433 14.8614 3.76364C16.1507 5.05295 16.875 6.80164 16.875 8.625C16.875 11.6625 15.1949 14.3065 13.5966 16.1445C12.7899 17.0723 11.9847 17.8169 11.3813 18.3297C11.0792 18.5865 10.8266 18.7862 10.6481 18.9226C10.5588 18.9908 10.488 19.0433 10.4387 19.0793C10.4141 19.0973 10.3948 19.1112 10.3813 19.1208L10.3654 19.1321L10.3608 19.1354L10.3593 19.1364L10.3588 19.1368C10.3586 19.1369 10.3584 19.137 10 18.625ZM10 18.625L10.3584 19.137C10.1432 19.2877 9.85679 19.2877 9.64159 19.137L10 18.625Z" fill="#22A1D9"/>
</svg>
