<svg width="30" height="31" viewBox="0 0 30 31" fill="none" xmlns="http://www.w3.org/2000/svg">
<path d="M25.2861 11.1532C24.5375 6.23218 20.2176 2.45801 15.0004 2.45801C9.78326 2.45801 5.46331 6.23218 4.71473 11.1532C4.57666 12.0608 4.66749 12.9874 4.95538 13.8604C5.20467 14.6163 5.54728 15.5239 6.01587 16.5147C6.37166 17.267 6.97828 18.4425 8.80307 20.883C9.44922 21.7471 10.2468 22.7685 11.2418 23.9878C12.1415 25.0902 13.4128 26.612 15.0004 28.3959C16.5881 26.612 17.8593 25.0902 18.759 23.9878C19.7541 22.7685 20.5516 21.7471 21.1978 20.883C23.0226 18.4425 23.6292 17.267 23.985 16.5147C24.4536 15.5239 24.7962 14.6163 25.0455 13.8604C25.3334 12.9874 25.4242 12.0608 25.2861 11.1532ZM15.0267 16.3495C12.1065 16.3495 9.73927 14.1412 9.73927 11.417C9.73927 8.69285 12.1065 6.48448 15.0267 6.48448C17.9469 6.48448 20.3142 8.69285 20.3142 11.417C20.3142 14.1412 17.9469 16.3495 15.0267 16.3495Z" fill="white"/>
</svg>
