<svg width="20" height="21" viewBox="0 0 20 21" fill="none" xmlns="http://www.w3.org/2000/svg">
<path fill-rule="evenodd" clip-rule="evenodd" d="M10 1.75C10.3452 1.75 10.625 2.02982 10.625 2.375V18.625C10.625 18.9702 10.3452 19.25 10 19.25C9.65482 19.25 9.375 18.9702 9.375 18.625V2.375C9.375 2.02982 9.65482 1.75 10 1.75Z" fill="#22A1D9"/>
<path fill-rule="evenodd" clip-rule="evenodd" d="M5.78585 4.72335C6.48911 4.02009 7.44294 3.625 8.4375 3.625H11.25C11.7425 3.625 12.2301 3.722 12.6851 3.91045C13.14 4.09891 13.5534 4.37513 13.9017 4.72335C14.2499 5.07157 14.5261 5.48497 14.7145 5.93994C14.903 6.39491 15 6.88254 15 7.375C15 7.72018 14.7202 8 14.375 8C14.0298 8 13.75 7.72018 13.75 7.375C13.75 7.04669 13.6853 6.72161 13.5597 6.41829C13.4341 6.11498 13.2499 5.83938 13.0178 5.60723C12.7856 5.37509 12.51 5.19094 12.2067 5.0653C11.9034 4.93966 11.5783 4.875 11.25 4.875H8.4375C7.77446 4.875 7.13857 5.13839 6.66973 5.60723C6.20089 6.07607 5.9375 6.71196 5.9375 7.375C5.9375 8.03804 6.20089 8.67393 6.66973 9.14277C7.13857 9.61161 7.77446 9.875 8.4375 9.875H11.875C12.8696 9.875 13.8234 10.2701 14.5267 10.9733C15.2299 11.6766 15.625 12.6304 15.625 13.625C15.625 14.6196 15.2299 15.5734 14.5267 16.2767C13.8234 16.9799 12.8696 17.375 11.875 17.375H8.125C7.13044 17.375 6.17661 16.9799 5.47335 16.2767C4.77009 15.5734 4.375 14.6196 4.375 13.625C4.375 13.2798 4.65482 13 5 13C5.34518 13 5.625 13.2798 5.625 13.625C5.625 14.288 5.88839 14.9239 6.35723 15.3928C6.82607 15.8616 7.46196 16.125 8.125 16.125H11.875C12.538 16.125 13.1739 15.8616 13.6428 15.3928C14.1116 14.9239 14.375 14.288 14.375 13.625C14.375 12.962 14.1116 12.3261 13.6428 11.8572C13.1739 11.3884 12.538 11.125 11.875 11.125H8.4375C7.44294 11.125 6.48911 10.7299 5.78585 10.0267C5.08259 9.32339 4.6875 8.36956 4.6875 7.375C4.6875 6.38044 5.08259 5.42661 5.78585 4.72335Z" fill="#22A1D9"/>
</svg>
