<svg width="30" height="30" viewBox="0 0 30 30" fill="none" xmlns="http://www.w3.org/2000/svg">
<g clip-path="url(#clip0_94_46)">
<path d="M5.37573 18.3547C6.02574 19.3173 6.76149 20.2571 7.58123 21.1606C7.91391 21.5273 8.25994 21.8882 8.62007 22.2421C8.80603 22.4248 8.99446 22.6026 9.18403 22.7781C9.36268 22.9644 9.54368 23.1495 9.72963 23.3322C10.0898 23.686 10.4571 24.026 10.8303 24.3529C11.7499 25.1582 12.7065 25.8811 13.6862 26.5197C18.3678 29.5713 23.5785 30.6942 27.8217 29.6553C28.175 27.8515 28.2819 26.0367 28.1374 24.2645C28.0532 23.231 27.8829 22.2123 27.6276 21.2187C25.2231 20.6222 22.6735 20.5024 20.1245 20.8511C19.372 21.3042 18.6371 21.8041 17.9242 22.3507C17.4873 22.1272 17.0597 21.8844 16.6419 21.6228C15.6196 20.9829 14.6569 20.23 13.772 19.3606L12.6624 18.2704C11.7775 17.4011 11.0113 16.4552 10.3599 15.4508C10.0937 15.0403 9.84651 14.6202 9.61906 14.191C10.1753 13.4906 10.6842 12.7685 11.1453 12.0291C11.5003 9.5248 11.3784 7.01986 10.7713 4.65741C9.75987 4.40653 8.72308 4.23926 7.67112 4.1565C5.8674 4.01459 4.02025 4.11959 2.18429 4.46672C1.12687 8.63563 2.26978 13.7551 5.37573 18.3547Z" fill="white"/>
</g>
<defs>
<clipPath id="clip0_94_46">
<rect width="30" height="29.4748" fill="white" transform="translate(0 0.361816)"/>
</clipPath>
</defs>
</svg>
