<svg width="24" height="24" viewBox="0 0 24 24" fill="none" xmlns="http://www.w3.org/2000/svg">
<path d="M17.5 1.56321C19.2596 2.57921 20.7234 4.03715 21.7465 5.79272C22.7695 7.5483 23.3163 9.54061 23.3327 11.5724C23.3491 13.6043 22.8346 15.6052 21.84 17.377C20.8455 19.1489 19.4055 20.6303 17.6624 21.6746C15.9194 22.7189 13.9339 23.2898 11.9024 23.3309C9.87097 23.3721 7.86397 22.8819 6.08015 21.909C4.29632 20.9361 2.79752 19.5142 1.73211 17.784C0.666706 16.0538 0.0716442 14.0754 0.00583347 12.0445L0 11.6665L0.00583347 11.2885C0.0711704 9.2737 0.657472 7.31016 1.70758 5.58937C2.75769 3.86857 4.23576 2.44924 5.99771 1.46974C7.75965 0.49024 9.74534 -0.0159959 11.7612 0.000385287C13.777 0.0167665 15.7542 0.555205 17.5 1.56321ZM15.9915 8.50838C15.7906 8.3075 15.5233 8.18683 15.2398 8.169C14.9563 8.15118 14.676 8.23741 14.4515 8.41154L14.3418 8.50838L10.5 12.349L8.9915 10.8417L8.88183 10.7449C8.65735 10.5709 8.3771 10.4847 8.09364 10.5026C7.81018 10.5205 7.54297 10.6412 7.34214 10.842C7.1413 11.0428 7.02063 11.3101 7.00275 11.5935C6.98486 11.877 7.071 12.1572 7.245 12.3817L7.34183 12.4914L9.67517 14.8247L9.78483 14.9215C9.98944 15.0803 10.241 15.1664 10.5 15.1664C10.759 15.1664 11.0106 15.0803 11.2152 14.9215L11.3248 14.8247L15.9915 10.158L16.0883 10.0484C16.2625 9.8239 16.3487 9.54361 16.3309 9.26008C16.313 8.97655 16.1924 8.70927 15.9915 8.50838Z" fill="#9DBF2B"/>
</svg>
