<svg width="30" height="31" viewBox="0 0 30 31" fill="none" xmlns="http://www.w3.org/2000/svg">
<g clip-path="url(#clip0_94_69)">
<path d="M20.2237 27.9029H9.76257C5.21507 27.9029 2.5 25.2371 2.5 20.7726V10.5181C2.5 6.06105 5.21507 3.39995 9.76257 3.39995H20.2374C21.2107 3.35131 22.1842 3.49328 23.1009 3.81766C24.0176 4.14203 24.859 4.64229 25.5762 5.28912C26.2333 5.99245 26.7409 6.81707 27.0691 7.71489C27.3973 8.61272 27.5395 9.5658 27.4875 10.5181V20.7847C27.4875 25.2418 24.7724 27.9029 20.2237 27.9029ZM7.50122 20.8057C8.99302 21.7444 10.7284 22.2435 12.5012 22.2439H12.525C13.8295 22.2734 15.1245 22.0223 16.3193 21.5081C17.514 20.994 18.5794 20.2294 19.44 19.2681C20.9689 17.5629 21.8211 15.3756 21.8411 13.1056C21.8411 12.9696 21.8414 12.8275 21.8314 12.6915C22.4739 12.2372 23.0276 11.6732 23.4662 11.0265C22.8684 11.2874 22.2339 11.458 21.5839 11.5324C22.2676 11.1311 22.7794 10.5004 23.0249 9.75721C22.3809 10.1309 21.6766 10.3944 20.9424 10.5364C20.6367 10.2154 20.2666 9.95977 19.8553 9.78562C19.4441 9.61147 19.0006 9.52261 18.5525 9.5245C17.7161 9.52269 16.9108 9.83534 16.3025 10.398C15.8862 10.7836 15.5796 11.2688 15.4132 11.8059C15.2468 12.3431 15.2264 12.9136 15.3537 13.4609C14.0516 13.3958 12.778 13.0634 11.6153 12.4854C10.4525 11.9073 9.42663 11.0965 8.60382 10.1052C8.18678 10.8128 8.05948 11.6491 8.24768 12.4451C8.43588 13.2412 8.92557 13.9376 9.61761 14.3932C9.09651 14.3768 8.58669 14.2387 8.1311 13.9902V14.0306C8.13307 14.7711 8.39524 15.4882 8.87329 16.0617C9.35134 16.6351 10.0163 17.0297 10.7562 17.1791C10.4759 17.254 10.1867 17.2919 9.89624 17.2919C9.68854 17.2919 9.48149 17.2722 9.27765 17.2331C9.48685 17.8714 9.89421 18.4296 10.4431 18.8296C10.992 19.2296 11.655 19.4516 12.3389 19.4642C11.1796 20.3551 9.74953 20.8403 8.27637 20.8425H8.26874C8.01198 20.8447 7.75654 20.8324 7.50122 20.8057Z" fill="white"/>
</g>
<defs>
<clipPath id="clip0_94_69">
<rect width="30" height="29.4036" fill="white" transform="translate(0 0.949707)"/>
</clipPath>
</defs>
</svg>
